HIERARCHY
ROOT Hips
{
  OFFSET 0 0.46367 0.080341
  CHANNELS 6 Xposition Yposition Zposition Zrotation Yrotation Xrotation
  JOINT LHipJoint
  {
    OFFSET 0 0 0
    CHANNELS 3 Zrotation Yrotation Xrotation
    JOINT LeftUpLeg
    {
      OFFSET 0.949434 -0.248378 0.086503
      CHANNELS 3 Zrotation Yrotation Xrotation
      JOINT LeftLeg
      {
        OFFSET -0.076513 -3.87942 -0.177038
        CHANNELS 3 Zrotation Yrotation Xrotation
        JOINT LeftFoot
        {
          OFFSET -0.188964 -3.68097 -0.122632
          CHANNELS 3 Zrotation Yrotation Xrotation
          JOINT LeftToeBase
          {
            OFFSET 0.055451 -0.52448 1.12038
            CHANNELS 3 Zrotation Yrotation Xrotation
            End Site
            {
              OFFSET 0.007944 -0.006006 0.13966
            }
          }
        }
      }
    }
  }
  JOINT RHipJoint
  {
    OFFSET 0 0 0
    CHANNELS 3 Zrotation Yrotation Xrotation
    JOINT RightUpLeg
    {
      OFFSET -0.949434 -0.248378 0.086503
      CHANNELS 3 Zrotation Yrotation Xrotation
      JOINT RightLeg
      {
        OFFSET 0.076513 -3.87942 -0.177038
        CHANNELS 3 Zrotation Yrotation Xrotation
        JOINT RightFoot
        {
          OFFSET 0.188964 -3.68097 -0.122632
          CHANNELS 3 Zrotation Yrotation Xrotation
          JOINT RightToeBase
          {
            OFFSET -0.055451 -0.52448 1.12038
            CHANNELS 3 Zrotation Yrotation Xrotation
            End Site
            {
              OFFSET -0.007944 -0.006006 0.13966
            }
          }
        }
      }
    }
  }
  JOINT LowerBack
  {
    OFFSET 0 0 0
    CHANNELS 3 Zrotation Yrotation Xrotation
    JOINT Spine
    {
      OFFSET 0 0.677144 0.028277
      CHANNELS 3 Zrotation Yrotation Xrotation
      JOINT Spine1
      {
        OFFSET 0 2.15612 -0.508617
        CHANNELS 3 Zrotation Yrotation Xrotation
        JOINT Neck
        {
          OFFSET 0 0 0
          CHANNELS 3 Zrotation Yrotation Xrotation
          JOINT Neck1
          {
            OFFSET 0 1.78187 0.216275
            CHANNELS 3 Zrotation Yrotation Xrotation
            JOINT Head
            {
              OFFSET 0 1.01591 -0.026879
              CHANNELS 3 Zrotation Yrotation Xrotation
              End Site
              {
                OFFSET 0 0.339197 0.983632
              }
            }
          }
        }
        JOINT LeftShoulder
        {
          OFFSET 0 0 0
          CHANNELS 3 Zrotation Yrotation Xrotation
          JOINT LeftArm
          {
            OFFSET 1.56587 1.18474 0.289545
            CHANNELS 3 Zrotation Yrotation Xrotation
            JOINT LeftForeArm
            {
              OFFSET 1.93094 -0.176441 -0.109244
              CHANNELS 3 Zrotation Yrotation Xrotation
              JOINT LeftHand
              {
                OFFSET 2.26341 -0.058986 0.122483
                CHANNELS 3 Zrotation Yrotation Xrotation
                JOINT LeftFingerBase
                {
                  OFFSET 0 0 0
                  CHANNELS 3 Zrotation Yrotation Xrotation
                  JOINT LeftHandIndex1
                  {
                    OFFSET 0.944218 0.017559 0.358417
                    CHANNELS 3 Zrotation Yrotation Xrotation
                    End Site
                    {
                      OFFSET 0.237801 -0.022714 0.035813
                    }
                  }
                }
                JOINT LThumb
                {
                  OFFSET 0 0 0
                  CHANNELS 3 Zrotation Yrotation Xrotation
                  End Site
                  {
                    OFFSET 0.23493 -0.092931 0.244282
                  }
                }
              }
            }
          }
        }
        JOINT RightShoulder
        {
          OFFSET 0 0 0
          CHANNELS 3 Zrotation Yrotation Xrotation
          JOINT RightArm
          {
            OFFSET -1.56587 1.18474 0.289545
            CHANNELS 3 Zrotation Yrotation Xrotation
            JOINT RightForeArm
            {
              OFFSET -1.93094 -0.176441 -0.109244
              CHANNELS 3 Zrotation Yrotation Xrotation
              JOINT RightHand
              {
                OFFSET -2.26341 -0.058986 0.122483
                CHANNELS 3 Zrotation Yrotation Xrotation
                JOINT RightFingerBase
                {
                  OFFSET 0 0 0
                  CHANNELS 3 Zrotation Yrotation Xrotation
                  JOINT RightHandIndex1
                  {
                    OFFSET -0.944218 0.017559 0.358417
                    CHANNELS 3 Zrotation Yrotation Xrotation
                    End Site
                    {
                      OFFSET -0.237801 -0.022714 0.035813
                    }
                  }
                }
                JOINT RThumb
                {
                  OFFSET 0 0 0
                  CHANNELS 3 Zrotation Yrotation Xrotation
                  End Site
                  {
                    OFFSET -0.23493 -0.092931 0.244282
                  }
                }
              }
            }
          }
        }
      }
    }
  }
}
MOTION
Frames: 15
Frame Time: 0.0083333
5.16656 9.46687 2.49558 -179.655 8.8698 175.636 0 0 0 1.6635 -17.8314 8.7805 1.0448 6.5004 18.2435 -0.0424 22.0637 -30.8326 0.1312 -2.3345 -6.431 0 0 0 1.3495 16.0516 5.0137 -1.3424 -7.3357 20.7137 -1.0794 -20.6039 -35.8107 -0.7257 5.4431 -15.1768 -0.7468 1.7579 8.0641 -1.3318 2.7082 4.8219 -1.1517 1.5373 0.4999 11.5887 9.1218 8.2281 -8.9659 11.5501 -17.8912 -3.8628 5.6058 -7.627 0 -0 0 -41.8296 -19.1075 4.5073 141.935 -46.881 -102.987 -0 -0 3.2887 38.2563 0.9764 0.7698 -7.125 0 -0 9.3 31.1422 -3.1872 0 -0 0 49.4963 25.6434 12.146 -136.937 49.7834 -99.2512 0 -0 -11.4239 -36.8436 13.9192 -10.2174 7.125 -0 -0 -6.3107 -12.8503 -4.7789 
5.16387 9.4681 2.48969 -179.683 8.9596 175.718 0 0 0 1.6159 -17.8259 8.764 1.0404 6.4871 18.2045 -0.0486 22.1385 -30.8954 0.1327 -2.3483 -6.4691 0 0 0 1.307 16.176 4.9691 -1.3479 -7.35 20.7565 -1.0674 -20.6461 -35.7903 -0.743 5.5064 -15.3588 -0.7833 1.7772 8.1174 -1.3341 2.7321 4.8232 -1.1377 1.5492 0.4709 11.4942 9.0762 8.166 -8.922 11.4921 -17.8274 -3.8366 5.5757 -7.6117 0 -0 0 -39.8451 -18.259 0.0703 141.408 -47.2132 -102.601 -0 -0 3.2569 39.445 -0.0642 -0.0528 -7.125 0 -0 10.1058 29.8188 -3.7958 0 -0 0 46.8523 25.4476 7.3943 -135.855 50.3428 -98.4213 0 -0 -11.6167 -38.1908 14.1383 -10.877 7.125 -0 -0 -7.1613 -12.3136 -5.5136 
5.1608 9.46883 2.48307 -179.744 9.0143 175.786 0 0 0 1.5246 -17.8271 8.7552 1.0364 6.4749 18.1689 -0.0581 22.2132 -30.9355 0.1371 -2.3863 -6.5746 0 0 0 1.224 16.2596 4.9258 -1.3539 -7.3658 20.8037 -1.0467 -20.7185 -35.7552 -0.7745 5.6192 -15.6834 -0.8636 1.7804 8.1498 -1.3341 2.7311 4.8226 -1.0942 1.5474 0.4491 11.3811 9.0278 8.1414 -8.8556 11.4352 -17.7459 -3.802 5.5473 -7.5993 0 0 0 -38.2463 -17.3557 -4.009 140.932 -47.508 -102.251 -0 -0 3.2349 40.4889 -1.1309 -0.9653 -7.125 0 -0 10.7629 28.4266 -4.4132 0 0 0 44.4236 25.136 3.074 -134.694 50.9175 -97.5239 0 -0 -11.7774 -39.1854 14.0415 -11.1874 7.125 -0 -0 -7.8272 -12.222 -6.0508 
5.15779 9.46896 2.4757 -179.821 9.0374 175.83 0 0 0 1.4131 -17.8175 8.7597 1.0328 6.4641 18.1372 -0.0682 22.27 -30.9474 0.1428 -2.4352 -6.7099 0 0 0 1.1276 16.3101 4.9024 -1.3603 -7.3824 20.8533 -1.0307 -20.789 -35.7443 -0.805 5.726 -15.9914 -0.9684 1.7746 8.1783 -1.3295 2.7161 4.8188 -1.0311 1.5379 0.4245 11.2714 8.9711 8.1767 -8.7966 11.3734 -17.6702 -3.7731 5.5174 -7.598 -0 0 0 -37.0305 -16.4044 -7.6584 140.575 -47.7253 -101.988 -0 -0 3.269 41.2682 -2.046 -1.7945 -7.125 0 -0 11.215 27.2083 -4.9345 -0 0 0 42.2497 24.6568 -0.7692 -133.593 51.4393 -96.6664 0 -0 -11.8456 -39.6243 13.7449 -11.1296 7.125 -0 -0 -8.1645 -12.4947 -6.2702 
5.15491 9.46859 2.46791 -179.893 9.0343 175.848 0 0 0 1.3059 -17.789 8.7785 1.0302 6.456 18.1135 -0.0746 22.2938 -30.9378 0.1484 -2.4823 -6.8405 0 0 0 1.0457 16.3456 4.916 -1.3664 -7.3982 20.9006 -1.0266 -20.8431 -35.7804 -0.8246 5.7939 -16.1875 -1.0664 1.7667 8.2249 -1.3224 2.6982 4.8108 -0.9699 1.527 0.386 11.1997 8.9168 8.2467 -8.7643 11.3167 -17.5854 -3.7588 5.4904 -7.5951 0 -0 0 -36.1812 -15.4144 -10.8038 140.387 -47.8389 -101.848 -0 -0 3.357 41.8349 -2.6679 -2.3861 -7.125 0 -0 11.5387 26.364 -5.3162 0 -0 0 40.3654 23.9848 -4.0967 -132.654 51.8673 -95.9298 0 -0 -11.7959 -39.5061 13.4604 -10.8644 7.125 -0 -0 -8.1362 -12.8731 -6.1831 
5.15239 9.46816 2.46006 -179.943 9.0102 175.845 0 0 0 1.2245 -17.7378 8.8096 1.0275 6.4479 18.0898 -0.0811 22.2943 -30.894 0.1553 -2.5391 -6.998 0 0 0 0.997299 16.3854 4.9677 -1.3725 -7.414 20.9479 -1.041 -20.8612 -35.8778 -0.8258 5.798 -16.1994 -1.1236 1.7578 8.2924 -1.3215 2.6819 4.8043 -0.9387 1.5183 0.3396 11.1862 8.8648 8.3288 -8.7807 11.2621 -17.4998 -3.7683 5.464 -7.5874 0 -0 0 -35.6512 -14.4081 -13.4203 140.391 -47.8369 -101.851 -0 -0 3.4405 42.209 -2.7395 -2.4823 -7.125 0 -0 11.8045 26.2469 -5.4768 0 -0 0 38.8038 23.1399 -6.889 -131.926 52.1884 -95.3561 0 -0 -11.6364 -38.9776 13.3843 -10.6086 7.125 -0 -0 -7.8023 -13.0771 -5.8907 
5.15012 9.46767 2.45239 -179.958 8.9751 175.834 0 0 0 1.1872 -17.6687 8.8478 1.0239 6.437 18.0578 -0.0918 22.2885 -30.8138 0.1643 -2.6114 -7.1986 0 0 0 0.991699 16.417 5.0285 -1.3792 -7.4315 21.0001 -1.0532 -20.89 -35.9748 -0.8278 5.8047 -16.2189 -1.1319 1.7444 8.3742 -1.3221 2.6635 4.8013 -0.9367 1.5098 0.2911 11.2311 8.8241 8.3869 -8.8478 11.2197 -17.3831 -3.7992 5.442 -7.559 -0 0 0 -35.3876 -13.4019 -15.5465 140.584 -47.7199 -101.994 -0 -0 3.4886 42.2871 -2.353 -2.1385 -7.125 0 -0 11.9278 26.7522 -5.3917 -0 0 0 37.5563 22.1737 -9.1442 -131.414 52.4089 -94.951 0 -0 -11.4076 -38.2394 13.6438 -10.5303 7.125 -0 -0 -7.274 -12.9082 -5.5108 
5.14834 9.46761 2.44521 -179.954 8.933 175.82 0 0 0 1.1764 -17.5918 8.8917 1.0188 6.4215 18.0125 -0.1075 22.2887 -30.7077 0.1753 -2.6968 -7.4356 0 0 0 1.0053 16.449 5.0877 -1.387 -7.4516 21.0605 -1.079 -20.8738 -36.0961 -0.8181 5.7715 -16.1229 -1.1168 1.727 8.4632 -1.3238 2.6418 4.8015 -0.9489 1.5003 0.243 11.3092 8.7883 8.4061 -8.9453 11.1808 -17.2368 -3.8419 5.4203 -7.5112 -0 0 0 -35.3283 -12.4212 -17.2698 140.913 -47.5194 -102.237 -0 -0 3.5418 41.9324 -1.6466 -1.4786 -7.125 0 -0 11.7791 27.7006 -5.0526 -0 0 0 36.5839 21.1354 -10.9084 -131.087 52.5477 -94.6912 0 -0 -11.159 -37.4445 14.2727 -10.6913 7.125 -0 -0 -6.6506 -12.3037 -5.116 
5.14681 9.46761 2.43853 -179.965 8.8847 175.802 0 0 0 1.1498 -17.5259 8.9429 1.013 6.4036 17.9601 -0.1256 22.3017 -30.6026 0.187 -2.7852 -7.6812 0 0 0 0.9977 16.4704 5.1364 -1.3953 -7.473 21.1244 -1.1171 -20.8065 -36.2289 -0.7973 5.6992 -15.9141 -1.1172 1.7115 8.5535 -1.333 2.6222 4.8039 -0.9602 1.492 0.1962 11.3937 8.7507 8.3799 -9.0367 11.1354 -17.0601 -3.882 5.3947 -7.4478 -0 0 0 -35.391 -11.5 -18.662 141.314 -47.272 -102.532 -0 -0 3.6291 41.084 -0.7372 -0.6427 -7.125 0 -0 11.277 28.9195 -4.497 -0 0 0 35.8215 20.0579 -12.2841 -130.878 52.6351 -94.5255 0 -0 -10.9195 -36.7251 15.0693 -10.9771 7.125 -0 -0 -6.0538 -11.4911 -4.7537 
5.14558 9.46755 2.43239 -179.99 8.8344 175.788 0 0 0 1.1034 -17.4851 8.996 1.0075 6.3869 17.9113 -0.1423 22.3255 -30.5221 0.1976 -2.8622 -7.8954 0 0 0 0.968901 16.4904 5.1765 -1.403 -7.4925 21.1829 -1.171 -20.6826 -36.3852 -0.7606 5.5695 -15.5403 -1.1232 1.7102 8.6378 -1.3577 2.6209 4.8009 -0.9857 1.4928 0.1478 11.4749 8.6988 8.3279 -9.0926 11.0667 -16.8639 -3.9116 5.358 -7.379 0 -0 0 -35.4635 -10.6819 -19.7613 141.704 -47.0273 -102.818 -0 -0 3.7604 39.8719 0.1418 0.1184 -7.125 0 -0 10.4658 30.0768 -3.8696 0 -0 0 35.2054 18.9434 -13.3844 -130.715 52.703 -94.3957 0 -0 -10.7084 -36.2122 15.8154 -11.2855 7.125 -0 -0 -5.6026 -10.7071 -4.4863 
5.14478 9.46761 2.42669 -180.011 8.7799 175.787 0 0 0 1.0638 -17.4689 9.0243 1.0051 6.3793 17.889 -0.1562 22.3482 -30.4589 0.2075 -2.9328 -8.0917 0 0 0 0.940599 16.5129 5.2094 -1.4079 -7.5051 21.2207 -1.2323 -20.5337 -36.5549 -0.7148 5.4031 -15.0618 -1.126 1.7223 8.6967 -1.3871 2.6364 4.7875 -1.0185 1.5016 0.1032 11.541 8.6304 8.2996 -9.109 10.9757 -16.6867 -3.9305 5.3121 -7.3254 -0 0 0 -35.466 -9.9746 -20.6065 142.008 -46.8339 -103.041 -0 -0 3.9137 38.5958 0.6939 0.5538 -7.125 0 -0 9.5354 30.7868 -3.3523 -0 0 0 34.6498 17.8154 -14.2744 -130.534 52.778 -94.2513 0 -0 -10.5439 -35.9512 16.4549 -11.6089 7.125 -0 -0 -5.3328 -10.0039 -4.3447 
5.14442 9.46742 2.4216 -180.02 8.7129 175.806 0 0 0 1.0483 -17.4721 9.0087 1.0071 6.3855 17.9073 -0.1672 22.3566 -30.395 0.2182 -3.0068 -8.2977 0 0 0 0.9254 16.5239 5.233 -1.4086 -7.5069 21.2261 -1.288 -20.41 -36.7204 -0.6701 5.2349 -14.5798 -1.1246 1.743 8.7304 -1.4133 2.661 4.756 -1.0506 1.5136 0.0537 11.5893 8.5501 8.329 -9.0962 10.8725 -16.5445 -3.9419 5.2625 -7.2958 0 0 0 -35.3351 -9.3657 -21.2197 142.178 -46.7252 -103.164 -0 -0 4.0282 37.6806 0.7117 0.5497 -7.125 0 -0 8.8156 30.8101 -3.0886 0 0 0 34.0776 16.6921 -14.9869 -130.282 52.8813 -94.0505 0 -0 -10.4334 -35.985 16.9429 -11.9482 7.125 -0 -0 -5.2768 -9.4192 -4.3611 
5.1446 9.46693 2.41705 -180.013 8.6243 175.843 0 0 0 1.0604 -17.498 8.9419 1.015 6.4099 17.9783 -0.1706 22.3329 -30.3376 0.2284 -3.076 -8.4904 0 0 0 0.927999 16.5103 5.2499 -1.4039 -7.495 21.1905 -1.3219 -20.3682 -36.8553 -0.6389 5.1139 -14.2338 -1.1169 1.7645 8.7409 -1.4339 2.6848 4.7099 -1.0798 1.5242 0.0018 11.6201 8.4663 8.4045 -9.0679 10.7681 -16.4407 -3.9485 5.2139 -7.2873 0 0 0 -35.0233 -8.8527 -21.6277 142.186 -46.7205 -103.17 -0 -0 4.0319 37.4242 0.1554 0.1189 -7.125 0 -0 8.5541 30.1176 -3.1384 0 0 0 33.4482 15.6131 -15.5436 -129.925 53.0258 -93.7658 0 -0 -10.3639 -36.2379 17.3565 -12.333 7.125 -0 -0 -5.3713 -8.8737 -4.4988 
5.14528 9.4665 2.41295 -179.994 8.5101 175.897 0 0 0 1.0946 -17.5487 8.8314 1.0282 6.45 18.0959 -0.1656 22.2774 -30.2922 0.2377 -3.1378 -8.6626 0 0 0 0.941999 16.4685 5.2624 -1.3944 -7.4705 21.117 -1.3411 -20.3814 -36.9688 -0.6167 5.0257 -13.9818 -1.1059 1.7755 8.7258 -1.4455 2.6933 4.6555 -1.0994 1.5262 -0.0453 11.6221 8.3889 8.5047 -9.0272 10.6757 -16.368 -3.9473 5.172 -7.2934 0 0 0 -34.5343 -8.4127 -21.8637 142.035 -46.8168 -103.06 -0 -0 3.902 37.7611 -0.8885 -0.6882 -7.125 0 -0 8.7003 28.8097 -3.4672 0 0 0 32.7525 14.6266 -15.9534 -129.446 53.2166 -93.3826 0 -0 -10.3251 -36.5203 17.8382 -12.7807 7.125 -0 -0 -5.4708 -8.2387 -4.6522 
5.1462 9.46564 2.40914 -179.963 8.3791 175.963 0 0 0 1.1463 -17.6172 8.6941 1.0445 6.4993 18.2403 -0.1556 22.2041 -30.2557 0.2464 -3.1943 -8.8203 0 0 0 0.962799 16.3783 5.2592 -1.3815 -7.4372 21.0174 -1.3363 -20.4613 -37.0246 -0.613 5.0112 -13.9406 -1.0909 1.7735 8.689 -1.4483 2.6838 4.5958 -1.1099 1.5186 -0.0864 11.5861 8.3207 8.6137 -8.9679 10.5984 -16.3084 -3.9337 5.1379 -7.3063 0 -0 0 -33.9056 -8.0136 -21.9365 141.755 -46.9954 -102.855 -0 -0 3.7234 38.4485 -2.2374 -1.7754 -7.125 0 -0 9.0626 27.0938 -3.987 0 -0 0 32.0056 13.7464 -16.2172 -128.863 53.4441 -92.9148 0 -0 -10.3087 -36.6653 18.4778 -13.2755 7.125 -0 -0 -5.4536 -7.4483 -4.7226 
